<svg width="93" height="20" viewBox="0 0 93 20" fill="none" xmlns="http://www.w3.org/2000/svg">
<path d="M13.9981 16.6806C13.5124 16.6806 13.0652 16.6806 12.618 16.6806C12.2506 16.6806 12.3032 16.6487 12.3013 17.0001C12.3013 17.4341 12.3013 17.8691 12.3013 18.322C12.214 18.3276 12.1463 18.3351 12.0777 18.3351C11.1382 18.3351 10.193 18.3304 9.25065 18.3408C9.04959 18.3408 9.00073 18.2759 9.00731 18.0871C9.01952 17.6775 9.00731 17.2669 9.01295 16.8572C9.01295 16.7248 8.97161 16.6768 8.83631 16.6797C8.40037 16.6853 7.96442 16.675 7.52848 16.6797C7.37157 16.6797 7.31708 16.6336 7.31802 16.473C7.32366 15.5052 7.31802 14.5366 7.32366 13.5689C7.32366 13.4044 7.28608 13.3434 7.11038 13.349C6.69417 13.3612 6.27701 13.349 5.8608 13.3556C5.72363 13.3556 5.67289 13.318 5.67289 13.1677C5.67665 11.0531 5.67665 8.93819 5.67289 6.82298C5.67289 6.67171 5.73584 6.64071 5.86925 6.64259C6.27889 6.64916 6.68947 6.63507 7.09911 6.6501C7.29265 6.65668 7.33211 6.58903 7.33023 6.40958C7.32178 5.46065 7.33023 4.51265 7.32178 3.56372C7.32178 3.37581 7.37439 3.32226 7.55948 3.3279C7.9757 3.34105 8.39285 3.3279 8.80907 3.33447C8.94436 3.33447 8.98758 3.28843 8.9857 3.15596C8.98006 2.73317 8.99322 2.31037 8.9857 1.88758C8.98006 1.69967 9.04771 1.66115 9.21777 1.66209C10.1799 1.66836 11.1413 1.66836 12.1021 1.66209C12.276 1.66209 12.3192 1.71847 12.3154 1.88289C12.3051 2.30568 12.3154 2.72847 12.3088 3.1522C12.3088 3.29877 12.3549 3.34011 12.4968 3.34011C12.9195 3.33165 13.3423 3.34575 13.7661 3.33259C13.954 3.32602 14.0179 3.37487 14.016 3.57499C14.0047 4.52393 14.016 5.47286 14.0066 6.42085C14.0066 6.60876 14.063 6.6595 14.2452 6.65386C14.6483 6.64071 15.0523 6.65386 15.4563 6.64822C15.5888 6.64822 15.6357 6.68768 15.6357 6.82298C15.632 8.93756 15.632 11.0528 15.6357 13.1686C15.6357 13.3095 15.5935 13.3565 15.4478 13.3565C15.0504 13.3481 14.653 13.364 14.2556 13.3499C14.0677 13.3434 14.0028 13.3913 14.0057 13.5923C14.016 14.5319 14.0103 15.4771 14.0057 16.4194L13.9981 16.6806ZM8.99322 9.99956C8.99322 11.5883 8.99322 13.1771 8.98852 14.7658C8.98852 14.965 9.04677 15.0129 9.23844 15.0111C10.178 15.0017 11.1197 15.0017 12.0636 15.0111C12.2262 15.0111 12.2863 14.9744 12.2854 14.7987C12.281 11.6043 12.281 8.40735 12.2854 5.20791C12.2854 5.04349 12.2309 5.00309 12.0749 5.00403C11.1354 5.01061 10.1958 5.00403 9.24971 5.00403C8.99416 5.00403 8.99322 5.00403 8.99322 5.26992V9.99956Z" fill="#838775"/>
<path d="M4.00427 15.0073C4.49753 15.0073 4.99079 15.012 5.48405 15.0073C5.63155 15.0073 5.68699 15.0458 5.68605 15.2018C5.67978 16.1814 5.67978 17.1617 5.68605 18.1425C5.68605 18.3126 5.6184 18.3436 5.46995 18.3427C4.49565 18.3427 3.52229 18.3427 2.54799 18.3361C2.3723 18.3361 2.31686 18.3859 2.32156 18.5625C2.33283 18.9787 2.32156 19.3959 2.32156 19.8121C2.32156 19.9558 2.27364 20 2.13365 20C1.69865 19.9925 1.2627 19.9934 0.826755 20C0.691462 20 0.649183 19.954 0.650122 19.8215C0.655759 19.3799 0.655759 18.938 0.650122 18.4958C0.650122 18.3577 0.703676 18.321 0.832393 18.3229C1.25518 18.3286 1.67798 18.3182 2.10171 18.3229C2.25579 18.3229 2.31217 18.2863 2.31123 18.1209C2.30465 17.1607 2.31123 16.1996 2.30559 15.2384C2.30559 15.0505 2.36102 14.9988 2.54423 15.0035C3.02997 15.0139 3.51759 15.0073 4.00427 15.0073Z" fill="#838775"/>
<path d="M2.32532 1.67243H2.59308C3.54859 1.67243 4.50317 1.67243 5.45774 1.67243C5.63343 1.67243 5.68792 1.72129 5.68698 1.8998C5.67821 2.86126 5.67821 3.82241 5.68698 4.78324C5.68698 4.95517 5.64376 5.01437 5.46337 5.01249C4.4825 5.00403 3.50162 5.01249 2.52168 5.01249H2.3272C2.32062 4.91853 2.30934 4.84149 2.30934 4.76163C2.30934 3.81364 2.30934 2.86471 2.30934 1.91671C2.30934 1.74196 2.26143 1.68558 2.08292 1.69122C1.66764 1.70343 1.25049 1.69122 0.83427 1.69686C0.6924 1.69686 0.646362 1.65458 0.646362 1.50895C0.653879 1.073 0.652939 0.637061 0.646362 0.202054C0.646362 0.0658214 0.680186 0.00568838 0.83427 0.00850699C1.26928 0.0169628 1.70616 0.0160233 2.14117 0.00850699C2.28492 0.00850699 2.32907 0.0545444 2.32907 0.196415C2.3225 0.61263 2.32907 1.02979 2.32907 1.446L2.32532 1.67243Z" fill="#838775"/>
<path d="M17.3326 15.0073C17.8127 15.0073 18.2937 15.0129 18.7738 15.0073C18.9345 15.0073 18.9824 15.0561 18.9814 15.2149C18.9758 16.1761 18.9814 17.1372 18.9758 18.0984C18.9758 18.2703 19.019 18.3333 19.2004 18.3276C19.6166 18.3154 20.0328 18.3276 20.449 18.322C20.604 18.322 20.6491 18.3746 20.6463 18.5221C20.6388 18.9518 20.6388 19.3812 20.6463 19.8102C20.6463 19.9521 20.6003 19.9981 20.4584 19.9981C20.0225 19.9915 19.5865 19.9906 19.1515 19.9981C19.0078 19.9981 18.9636 19.9493 18.9636 19.8102C18.9702 19.3996 18.9533 18.9891 18.9692 18.5804C18.9777 18.3765 18.9063 18.3361 18.7193 18.338C17.7713 18.3464 16.8224 18.338 15.8744 18.3455C15.6987 18.3455 15.6461 18.2957 15.647 18.1181C15.6558 17.1504 15.6558 16.183 15.647 15.2159C15.647 15.0552 15.6959 15.0064 15.8547 15.0092C16.346 15.012 16.8393 15.0073 17.3326 15.0073Z" fill="#838775"/>
<path d="M15.6583 5.00497C15.6536 4.91102 15.6489 4.85464 15.6489 4.79733C15.6489 3.82961 15.6489 2.86188 15.6442 1.89416C15.6442 1.71095 15.7034 1.66867 15.8744 1.66961C16.8139 1.67619 17.746 1.66961 18.6817 1.66961H18.9486C18.9542 1.57566 18.9608 1.50331 18.9608 1.42909C18.9608 1.01288 18.9608 0.596659 18.9608 0.179504C18.9608 0.0470292 19.0059 -0.00182709 19.1393 5.19892e-05C19.5874 0.00474968 20.0365 5.19892e-05 20.4847 5.19892e-05C20.5993 5.19892e-05 20.6463 0.0404525 20.6463 0.156016C20.6463 0.611692 20.6416 1.06643 20.6463 1.52116C20.6463 1.64988 20.5937 1.68652 20.4734 1.68558C20.0441 1.68089 19.6138 1.68558 19.1853 1.67995C19.0265 1.67995 18.9758 1.72598 18.9767 1.88571C18.9824 2.84685 18.9767 3.808 18.9833 4.76915C18.9833 4.95236 18.9354 5.00779 18.7484 5.00591C17.8004 4.99651 16.8515 5.00591 15.9035 5.00591L15.6583 5.00497Z" fill="#838775"/>
<path d="M50.0363 13.3437V14.742C50.0363 15.0059 50.0363 15.0059 49.7753 15.0059H43.5835C43.3291 15.0059 43.3282 15.0059 43.3282 14.7543C43.3282 14.3557 43.3206 13.9562 43.3282 13.5585C43.3282 13.3936 43.2905 13.3333 43.1152 13.339C42.6978 13.3512 42.2794 13.339 41.862 13.3456C41.7197 13.3456 41.6735 13.3032 41.6735 13.1571C41.6773 11.0546 41.6773 8.95233 41.6735 6.85041C41.6735 6.7053 41.7244 6.66195 41.862 6.66195C42.2671 6.66855 42.6723 6.66195 43.0775 6.66195C43.3244 6.66195 43.3244 6.66196 43.3253 6.40565C43.3253 6.00047 43.3253 5.59529 43.3253 5.19011C43.3253 5.04028 43.3715 4.9894 43.5242 4.9894C45.6261 4.99317 47.7283 4.99317 49.8309 4.9894C49.9901 4.9894 50.0429 5.0384 50.0391 5.19859C50.0297 5.61602 50.0391 6.03439 50.0325 6.45183C50.0278 6.62615 50.0881 6.66949 50.2539 6.66572C50.6714 6.65536 51.0898 6.66572 51.5072 6.65913C51.6466 6.65913 51.6956 6.69588 51.6956 6.84759C51.6919 8.95013 51.6919 11.0524 51.6956 13.1543C51.6956 13.3173 51.6325 13.3427 51.4912 13.3427C51.0181 13.3343 50.5432 13.3437 50.0363 13.3437ZM48.3194 10.0297C48.3194 9.53498 48.3194 9.04028 48.3194 8.54464C48.3194 8.40141 48.2883 8.33922 48.131 8.34016C47.1538 8.3477 46.1767 8.34582 45.1995 8.34016C45.0638 8.34016 45.0045 8.37409 45.0054 8.52297C45.0111 9.51299 45.0111 10.503 45.0054 11.493C45.0054 11.64 45.061 11.6815 45.1986 11.6768C46.1757 11.6768 47.1529 11.6711 48.13 11.6768C48.2893 11.6768 48.3241 11.6184 48.3185 11.4733C48.3157 10.988 48.3194 10.5074 48.3194 10.025V10.0297Z" fill="#838775"/>
<path d="M39.1661 0.000954707C39.9378 0.000954707 40.7096 0.000954707 41.4803 0.000954707C41.6358 0.000954707 41.6933 0.0386461 41.6924 0.204488C41.6867 1.74041 41.6867 3.27665 41.6924 4.8132C41.6924 4.96208 41.6509 5.01391 41.4964 5.01391C39.9466 5.00825 38.3972 5.00825 36.8481 5.01391C36.7001 5.01391 36.6464 4.97621 36.6464 4.8198C36.6521 3.27696 36.6521 1.73413 36.6464 0.191296C36.6464 0.0292229 36.7105 0.00283896 36.8518 0.00283896C37.6236 0.00378124 38.3953 0.000954707 39.1661 0.000954707Z" fill="#838775"/>
<path d="M39.1802 14.9889C39.9454 14.9889 40.7096 14.9889 41.4747 14.9889C41.6424 14.9889 41.6942 15.0341 41.6942 15.2047C41.6873 16.7281 41.6873 18.2511 41.6942 19.7738C41.6942 19.9548 41.6377 20.0009 41.4634 20C39.9344 19.9943 38.405 19.9943 36.8754 20C36.6982 20 36.6464 19.95 36.6464 19.772C36.6527 18.2561 36.6527 16.7397 36.6464 15.2226C36.6464 15.0341 36.7058 14.9861 36.8876 14.9889C37.6509 14.9946 38.416 14.9899 39.1802 14.9889Z" fill="#838775"/>
<path d="M56.67 0.0141456C56.6747 0.0961243 56.6822 0.171507 56.6822 0.245947C56.6822 1.7536 56.6822 3.25466 56.6869 4.75949C56.6869 4.94323 56.653 5.01485 56.4457 5.01296C54.938 5.00354 53.4272 5.00354 51.9133 5.01296C51.7456 5.01296 51.6787 4.97998 51.6796 4.79247C51.6884 3.2622 51.6884 1.73193 51.6796 0.20166C51.6796 0.0574905 51.7107 -0.000931079 51.8681 1.12045e-05C53.4115 0.00566491 54.9541 1.12045e-05 56.4975 1.12045e-05C56.5531 0.00189577 56.6021 0.0084919 56.67 0.0141456Z" fill="#838775"/>
<path d="M54.172 19.9934C53.4181 19.9934 52.6558 19.9934 51.8973 19.9934C51.7267 19.9934 51.6806 19.9425 51.6806 19.7738C51.6875 18.2455 51.6875 16.7164 51.6806 15.1868C51.6806 15.0219 51.7352 14.9823 51.8907 14.9833C53.4203 14.987 54.9497 14.987 56.4787 14.9833C56.6398 14.9833 56.685 15.0342 56.685 15.1925C56.6806 16.7208 56.6806 18.2499 56.685 19.7795C56.685 19.951 56.6323 19.9972 56.4645 19.9953C55.7051 19.9896 54.9362 19.9934 54.172 19.9934Z" fill="#838775"/>
<path d="M86.0387 16.6806C85.553 16.6806 85.1058 16.6806 84.6585 16.6806C84.2912 16.6806 84.3438 16.6487 84.3419 17.0001C84.3419 17.4341 84.3419 17.8691 84.3419 18.322C84.2545 18.3276 84.1869 18.3351 84.1183 18.3351C83.1788 18.3351 82.2336 18.3304 81.2912 18.3408C81.0902 18.3408 81.0413 18.2759 81.0479 18.0871C81.0601 17.6775 81.0479 17.2669 81.0535 16.8572C81.0535 16.7248 81.0122 16.6768 80.8769 16.6797C80.441 16.6853 80.005 16.675 79.5691 16.6797C79.4122 16.6797 79.3577 16.6336 79.3586 16.473C79.3642 15.5052 79.3586 14.5366 79.3642 13.5689C79.3642 13.4044 79.3267 13.3434 79.151 13.349C78.7348 13.3612 78.3176 13.349 77.9014 13.3556C77.7642 13.3556 77.7135 13.318 77.7135 13.1677C77.7172 11.0531 77.7172 8.93819 77.7135 6.82298C77.7135 6.67171 77.7764 6.64071 77.9098 6.64259C78.3195 6.64916 78.7301 6.63507 79.1397 6.6501C79.3332 6.65668 79.3727 6.58903 79.3708 6.40958C79.3624 5.46065 79.3708 4.51265 79.3624 3.56372C79.3624 3.37581 79.415 3.32226 79.6001 3.3279C80.0163 3.34105 80.4334 3.3279 80.8497 3.33447C80.985 3.33447 81.0282 3.28843 81.0263 3.15596C81.0207 2.73317 81.0338 2.31037 81.0263 1.88758C81.0207 1.69967 81.0883 1.66115 81.2584 1.66209C82.2204 1.66836 83.1819 1.66836 84.1427 1.66209C84.3166 1.66209 84.3598 1.71847 84.356 1.88289C84.3457 2.30568 84.356 2.72847 84.3494 3.1522C84.3494 3.29877 84.3955 3.34011 84.5373 3.34011C84.9601 3.33165 85.3829 3.34575 85.8067 3.33259C85.9946 3.32602 86.0585 3.37487 86.0566 3.57499C86.0453 4.52393 86.0566 5.47286 86.0472 6.42085C86.0472 6.60876 86.1036 6.6595 86.2858 6.65386C86.6889 6.64071 87.0929 6.65386 87.4969 6.64822C87.6294 6.64822 87.6763 6.68768 87.6763 6.82298C87.6726 8.93756 87.6726 11.0528 87.6763 13.1686C87.6763 13.3095 87.6341 13.3565 87.4884 13.3565C87.091 13.3481 86.6936 13.364 86.2962 13.3499C86.1082 13.3434 86.0434 13.3913 86.0462 13.5923C86.0566 14.5319 86.0509 15.4771 86.0462 16.4194L86.0387 16.6806ZM81.0338 9.99956C81.0338 11.5883 81.0338 13.1771 81.0291 14.7658C81.0291 14.965 81.0874 15.0129 81.279 15.0111C82.2186 15.0017 83.1603 15.0017 84.1042 15.0111C84.2668 15.0111 84.3269 14.9744 84.3259 14.7987C84.3216 11.6043 84.3216 8.40735 84.3259 5.20791C84.3259 5.04349 84.2715 5.00309 84.1155 5.00403C83.176 5.01061 82.2364 5.00403 81.2903 5.00403C81.0347 5.00403 81.0338 5.00403 81.0338 5.26992V9.99956Z" fill="#838775"/>
<path d="M76.0449 15.0073C76.5381 15.0073 77.0314 15.012 77.5246 15.0073C77.6721 15.0073 77.7276 15.0458 77.7266 15.2018C77.7204 16.1814 77.7204 17.1617 77.7266 18.1425C77.7266 18.3126 77.659 18.3436 77.5105 18.3427C76.5362 18.3427 75.5629 18.3427 74.5886 18.3361C74.4129 18.3361 74.3575 18.3859 74.3621 18.5625C74.3734 18.9787 74.3621 19.3959 74.3621 19.8121C74.3621 19.9558 74.3142 20 74.1742 20C73.7392 19.9925 73.3033 19.9934 72.8673 20C72.7321 20 72.6898 19.954 72.6907 19.8215C72.6963 19.3799 72.6963 18.938 72.6907 18.4958C72.6907 18.3577 72.7443 18.321 72.873 18.3229C73.2958 18.3286 73.7186 18.3182 74.1423 18.3229C74.2964 18.3229 74.3528 18.2863 74.3518 18.1209C74.3452 17.1607 74.3518 16.1996 74.3462 15.2384C74.3462 15.0505 74.4016 14.9988 74.5848 15.0035C75.0706 15.0139 75.5582 15.0073 76.0449 15.0073Z" fill="#838775"/>
<path d="M74.3659 1.67243H74.6337C75.5892 1.67243 76.5438 1.67243 77.4983 1.67243C77.674 1.67243 77.7285 1.72129 77.7276 1.8998C77.7188 2.86126 77.7188 3.82241 77.7276 4.78324C77.7276 4.95517 77.6844 5.01437 77.504 5.01249C76.5231 5.00403 75.5422 5.01249 74.5623 5.01249H74.3678C74.3612 4.91853 74.3499 4.84149 74.3499 4.76163C74.3499 3.81364 74.3499 2.86471 74.3499 1.91671C74.3499 1.74196 74.302 1.68558 74.1235 1.69122C73.7082 1.70343 73.2911 1.69122 72.8749 1.69686C72.733 1.69686 72.687 1.65458 72.687 1.50895C72.6945 1.073 72.6935 0.637061 72.687 0.202054C72.687 0.0658214 72.7208 0.00568838 72.8749 0.00850699C73.3099 0.0169628 73.7467 0.0160233 74.1818 0.00850699C74.3255 0.00850699 74.3697 0.0545444 74.3697 0.196415C74.3631 0.61263 74.3697 1.02979 74.3697 1.446L74.3659 1.67243Z" fill="#838775"/>
<path d="M89.3731 15.0073C89.8533 15.0073 90.3343 15.0129 90.8144 15.0073C90.9751 15.0073 91.023 15.0561 91.022 15.2149C91.0164 16.1761 91.022 17.1372 91.0164 18.0984C91.0164 18.2703 91.0596 18.3333 91.2409 18.3276C91.6572 18.3154 92.0734 18.3276 92.4896 18.322C92.6446 18.322 92.6897 18.3746 92.6869 18.5221C92.6794 18.9518 92.6794 19.3812 92.6869 19.8102C92.6869 19.9521 92.6409 19.9981 92.499 19.9981C92.063 19.9915 91.6271 19.9906 91.1921 19.9981C91.0483 19.9981 91.0042 19.9493 91.0042 19.8102C91.0108 19.3996 90.9939 18.9891 91.0098 18.5804C91.0183 18.3765 90.9469 18.3361 90.7599 18.338C89.8119 18.3464 88.863 18.338 87.915 18.3455C87.7393 18.3455 87.6867 18.2957 87.6876 18.1181C87.6964 17.1504 87.6964 16.183 87.6876 15.2159C87.6876 15.0552 87.7365 15.0064 87.8953 15.0092C88.3866 15.012 88.8799 15.0073 89.3731 15.0073Z" fill="#838775"/>
<path d="M87.6989 5.00497C87.6942 4.91102 87.6895 4.85464 87.6895 4.79733C87.6895 3.82961 87.6895 2.86188 87.6848 1.89416C87.6848 1.71095 87.744 1.66867 87.915 1.66961C88.8545 1.67619 89.7865 1.66961 90.7223 1.66961H90.9891C90.9948 1.57566 91.0014 1.50331 91.0014 1.42909C91.0014 1.01288 91.0014 0.596659 91.0014 0.179504C91.0014 0.0470292 91.0465 -0.00182709 91.1799 5.19892e-05C91.628 0.00474968 92.0771 5.19892e-05 92.5253 5.19892e-05C92.6399 5.19892e-05 92.6869 0.0404525 92.6869 0.156016C92.6869 0.611692 92.6822 1.06643 92.6869 1.52116C92.6869 1.64988 92.6343 1.68652 92.514 1.68558C92.0847 1.68089 91.6543 1.68558 91.2259 1.67995C91.0671 1.67995 91.0164 1.72598 91.0173 1.88571C91.023 2.84685 91.0173 3.808 91.0239 4.76915C91.0239 4.95236 90.976 5.00779 90.789 5.00591C89.841 4.99651 88.8921 5.00591 87.9441 5.00591L87.6989 5.00497Z" fill="#838775"/>
</svg>
